<mxfile host="65bd71144e">
    <diagram id="cYrdkCWpXrrX8TDPBbdd" name="Page-1">
        <mxGraphModel dx="1019" dy="653" grid="1" gridSize="10" guides="1" tooltips="1" connect="1" arrows="1" fold="1" page="1" pageScale="1" pageWidth="827" pageHeight="1169" math="0" shadow="0">
            <root>
                <mxCell id="0"/>
                <mxCell id="1" parent="0"/>
                <mxCell id="2" value="&lt;font style=&quot;font-size: 30px&quot;&gt;goCurrency&lt;/font&gt;" style="rounded=0;whiteSpace=wrap;html=1;" vertex="1" parent="1">
                    <mxGeometry x="160" y="40" width="530" height="80" as="geometry"/>
                </mxCell>
                <mxCell id="3" value="" style="rounded=0;whiteSpace=wrap;html=1;" vertex="1" parent="1">
                    <mxGeometry x="160" y="140" width="528.97" height="660" as="geometry"/>
                </mxCell>
                <mxCell id="4" value="03/06/2022&lt;br&gt;1 SGD = 3 MYR" style="rounded=0;whiteSpace=wrap;html=1;fontSize=30;" vertex="1" parent="1">
                    <mxGeometry x="200" y="160" width="450" height="100" as="geometry"/>
                </mxCell>
                <mxCell id="5" value="SGD" style="rounded=0;whiteSpace=wrap;html=1;fontSize=30;" vertex="1" parent="1">
                    <mxGeometry x="200" y="279" width="120" height="60" as="geometry"/>
                </mxCell>
                <mxCell id="6" value="MYR" style="rounded=0;whiteSpace=wrap;html=1;fontSize=30;" vertex="1" parent="1">
                    <mxGeometry x="200" y="359" width="120" height="60" as="geometry"/>
                </mxCell>
                <mxCell id="7" value="100" style="rounded=0;whiteSpace=wrap;html=1;fontSize=30;" vertex="1" parent="1">
                    <mxGeometry x="340" y="279" width="310" height="60" as="geometry"/>
                </mxCell>
                <mxCell id="8" value="300" style="rounded=0;whiteSpace=wrap;html=1;fontSize=30;" vertex="1" parent="1">
                    <mxGeometry x="340" y="359" width="310" height="60" as="geometry"/>
                </mxCell>
                <mxCell id="9" value="Location 1" style="rounded=0;whiteSpace=wrap;html=1;fontSize=30;" vertex="1" parent="1">
                    <mxGeometry x="200" y="540" width="450" height="60" as="geometry"/>
                </mxCell>
                <mxCell id="10" value="Location 2" style="rounded=0;whiteSpace=wrap;html=1;fontSize=30;" vertex="1" parent="1">
                    <mxGeometry x="200" y="620" width="450" height="60" as="geometry"/>
                </mxCell>
                <mxCell id="11" value="Location 3" style="rounded=0;whiteSpace=wrap;html=1;fontSize=30;" vertex="1" parent="1">
                    <mxGeometry x="200" y="700" width="450" height="60" as="geometry"/>
                </mxCell>
                <mxCell id="12" value="Nearest Exchanges" style="rounded=0;whiteSpace=wrap;html=1;fontSize=12;align=center;" vertex="1" parent="1">
                    <mxGeometry x="200" y="490" width="450" height="30" as="geometry"/>
                </mxCell>
            </root>
        </mxGraphModel>
    </diagram>
</mxfile>